<?xml version="1.0" standalone="no"?>
<!DOCTYPE svg PUBLIC "-//W3C//DTD SVG 20010904//EN"
 "http://www.w3.org/TR/2001/REC-SVG-20010904/DTD/svg10.dtd">
<svg version="1.0" xmlns="http://www.w3.org/2000/svg"
 width="1024" height="621" viewBox="398 224 516 313"
 preserveAspectRatio="xMidYMid meet">

<g transform="translate(0.000000,768.000000) scale(0.100000,-0.100000)"
 fill="#6FF0D3" stroke="none">
<path d="m6710 5406 c0 -3 -16 -64 -36 -138 -19 -73 -49 -187 -65 -253 -55 -220
 -43 -195 -95 -195 -42 0 -45 2 -39 21 4 12 8 69 8 128 1 89 -2 113 -19 146
 -28 54 -85 92 -175 117 -67 20 -106 22 -436 26 l-361 4 -17 -59 c-28 -98 -43
 -153 -75 -273 -50 -189 -84 -310 -164 -601 -42 -152 -76 -280 -76 -284 0 -4
 123 -5 273 -2 427 9 491 36 576 245 l27 67 48 3 c42 3 47 1 42 -15 -3 -10 -24
 -92 -46 -183 -23 -91 -45 -181 -50 -201 -9 -32 -14 -36 -62 -48 -29 -8 -80
 -24 -112 -37 l-60 -24 -54 20 c-32 12 -100 24 -170 30 -123 10 -452 14 -452 5
 0 -3 -48 -180 -106 -393 -59 -213 -133 -484 -165 -602 -78 -283 -103 -389 -95
 -397 15 -15 157 -22 466 -22 505 -1 662 17 817 89 135 63 230 170 313 353 28
 63 32 67 63 67 68 0 76 35 -117 -550 l-31 -95 -1128 -3 -1129 -2 7 32 c4 18 9
 35 11 37 1 1 36 9 76 16 81 14 141 40 175 77 12 12 38 57 57 98 58 123 83 209
 511 1780 243 889 228 822 196 861 -17 21 -24 22 -142 21 -402 -3 -677 -227
 -657 -536 7 -113 70 -231 153 -287 19 -13 35 -29 35 -36 0 -6 -23 -32 -51 -57
 -50 -45 -147 -86 -203 -86 -30 0 -60 34 -87 100 -20 48 -23 73 -23 190 0 152
 17 234 78 364 105 226 319 383 611 449 86 19 127 20 957 22 478 1 871 5 875 8
 7 8 123 10 123 3z m1780 -17 c163 -20 292 -64 403 -137 167 -109 256 -319 228
 -535 -14 -108 -58 -230 -112 -313 -53 -82 -175 -197 -271 -257 -71 -44 -228
 -116 -255 -117 -6 0 -16 -31 -23 -71 -35 -208 -207 -393 -454 -488 -157 -61
 -193 -66 -421 -65 -197 0 -219 2 -361 32 -84 18 -216 50 -295 72 -204 57 -450
 117 -544 131 -105 17 -369 17 -470 0 -168 -27 -355 -104 -472 -193 -35 -26
 -63 -43 -63 -38 0 21 199 209 274 260 150 101 318 160 516 180 206 20 431 -19
 848 -150 190 -59 409 -114 517 -131 44 -6 132 -12 195 -12 183 1 322 42 458
 136 182 126 273 344 240 572 l-8 50 23 -49 23 -49 53 59 c62 70 131 206 157
 314 28 113 26 294 -4 383 -68 196 -238 305 -492 315 l-115 4 -52 -188 c-28
 -104 -126 -463 -218 -799 -91 -335 -168 -617 -171 -626 -4 -13 -14 -14 -67 -7
 -74 9 -301 58 -316 67 -7 5 8 73 45 201 30 107 93 332 139 500 46 168 111 404
 144 525 34 121 61 230 61 243 0 12 -10 32 -21 43 -20 20 -29 21 -123 16 -304
 -19 -565 -162 -660 -362 -88 -183 -39 -417 109 -525 41 -29 41 -33 15 -70 -39
 -55 -190 -112 -253 -96 -48 12 -96 152 -97 282 0 148 53 333 131 455 51 79
 155 188 231 240 158 109 374 182 593 202 98 9 858 6 935 -4z m-155 -1291 c-12
 -61 -45 -153 -64 -177 l-18 -23 -65 16 c-85 21 -196 35 -281 36 l-67 0 6 28
 c18 71 13 69 131 76 121 8 211 25 293 54 74 26 72 26 65 -10z m349 -201 c115
 -59 242 -185 290 -287 49 -104 70 -220 62 -335 -33 -469 -366 -809 -896 -915
 -200 -40 -320 -45 -586 -25 -174 13 -343 18 -619 17 l-381 -1 4 34 c4 31 8 35
 41 40 226 35 280 102 387 480 31 110 58 202 60 204 2 2 65 -8 141 -22 76 -14
 162 -29 191 -33 34 -4 52 -10 49 -18 -25 -65 -90 -354 -91 -404 -1 -59 1 -65
 30 -92 66 -58 208 -90 397 -90 470 2 780 285 837 767 21 172 -18 367 -94 473
 l-36 50 19 38 c15 30 35 90 57 169 4 16 29 7 138 -50z m-2294 -362 c107 -18
 254 -54 483 -119 212 -61 355 -91 517 -112 313 -39 587 14 806 158 l76 49 -36
 -44 c-68 -83 -209 -187 -313 -231 -125 -52 -200 -68 -360 -73 -256 -9 -408 19
 -827 156 -394 129 -582 170 -786 172 -120 0 -114 8 30 39 107 23 283 25 410 5z
 74 16 178 120 197 198 8 35 21 35 29 -2z"/>
</g>
</svg>
